<svg xmlns="http://www.w3.org/2000/svg" viewBox="0 0 165.63 157.16"><defs><style>.cls-1{fill:#ffbb01;}.cls-2{fill:#e94f57;}</style></defs><title>Asset 4n</title><g id="Layer_2" data-name="Layer 2"><g id="Character"><rect class="cls-1" y="5.21" width="151.95" height="151.95" rx="75.97"/><g id="oaCelh.tif"><path class="cls-2" d="M75.52,129.7c-1.81-.57-2.51-1.95-3-3.69-2.81-10.53-5.7-21-8.53-31.54A1.78,1.78,0,0,0,62.59,93q-16.11-4.35-32.2-8.74l-.68-.2a3.21,3.21,0,0,1-2.25-2.93,3.1,3.1,0,0,1,2.29-3c4.15-1.17,8.3-2.29,12.44-3.42Q52.41,72,62.63,69.23A1.78,1.78,0,0,0,64,67.76q4.34-16.05,8.73-32.1c.06-.23.12-.46.19-.68a3.21,3.21,0,0,1,3-2.32,3.13,3.13,0,0,1,3,2.33c1.29,4.63,2.55,9.26,3.82,13.9,1.7,6.26,3.42,12.51,5.08,18.78a2,2,0,0,0,1.63,1.6C100,72.11,110.5,75,121.05,77.84c1.76.47,3,1.28,3.44,3.09v.41c-.44,1.82-1.68,2.63-3.44,3.1C110.51,87.25,100,90.16,89.44,93a1.93,1.93,0,0,0-1.62,1.48c-2.8,10.45-5.69,20.87-8.48,31.32-.48,1.79-1.09,3.3-3,3.89Z"/></g><g id="oaCelh.tif-2" data-name="oaCelh.tif"><path class="cls-2" d="M133.35,64a3,3,0,0,1-2-2.43c-1.85-6.94-3.75-13.86-5.62-20.79a1.17,1.17,0,0,0-.94-1Q114.21,36.94,103.6,34l-.44-.13A2.11,2.11,0,0,1,101.67,32a2.06,2.06,0,0,1,1.51-2c2.73-.76,5.47-1.51,8.2-2.25,4.49-1.22,9-2.45,13.47-3.64a1.18,1.18,0,0,0,.93-1Q128.63,12.55,131.53,2c0-.15.08-.29.13-.44a2.11,2.11,0,0,1,2-1.53,2,2,0,0,1,2,1.53c.85,3.06,1.68,6.11,2.52,9.17,1.12,4.12,2.25,8.24,3.35,12.38a1.3,1.3,0,0,0,1.07,1.05c6.95,1.88,13.89,3.79,20.85,5.65a2.73,2.73,0,0,1,2.26,2v.27a2.72,2.72,0,0,1-2.26,2c-7,1.86-13.89,3.78-20.84,5.65a1.28,1.28,0,0,0-1.07,1c-1.85,6.89-3.75,13.76-5.59,20.65-.31,1.18-.71,2.18-2,2.56Z"/></g></g></g></svg>